<svg xmlns="http://www.w3.org/2000/svg" version="1.1" xmlns:xlink="http://www.w3.org/1999/xlink" xmlns:svgjs="http://svgjs.dev/svgjs" width="191.4" height="216.1"><svg version="1.1" xmlns="http://www.w3.org/2000/svg" xmlns:xlink="http://www.w3.org/1999/xlink" x="0px" y="0px" viewBox="0 0 191.4 216.1" style="enable-background:new 0 0 191.4 216.1;" xml:space="preserve">
<style type="text/css">
	.st0{display:none;}
	.st1{display:inline;}
	.st2{fill:#F9F1E1;}
	.st3{fill:#EAF4FE;}
	.st4{fill:none;stroke:#0561FC;stroke-width:6.8376;stroke-miterlimit:10;}
	.st5{fill:#0561FC;}
	.st6{fill:#C5E1F9;}
	.st7{fill:#7EB3FF;}
	.st8{fill:#B5D5EA;}
	.st9{fill:#E1EBF4;}
	.st10{fill:#9AC7F7;}
	.st11{fill:none;stroke:#0561FC;stroke-width:6.8376;}
	.st12{fill:none;stroke:#7EB3FF;stroke-width:6.8376;}
	.st13{fill:none;stroke:#0561FC;stroke-width:6.8376;stroke-linecap:round;}
	.st14{fill:none;stroke:#0561FC;stroke-width:7.1001;}
	.st15{fill:#B6D9EF;}
	.st16{fill:none;stroke:#9AC7F7;stroke-width:6.8376;}
	.st17{fill:none;stroke:#0561FC;stroke-width:6.8376;stroke-linejoin:bevel;}
	.st18{fill:none;stroke:#0561FC;stroke-width:6.8376;stroke-linecap:round;stroke-linejoin:round;}
	.st19{fill:none;stroke:#0561FC;stroke-width:5.0237;}
	.st20{fill:none;stroke:#0450CF;stroke-width:6.8376;}
	.st21{fill:none;stroke:#C5E1F9;stroke-width:6.8376;}
	.st22{fill:#FFBF0D;}
	.st23{fill:#B2D2EA;}
	.st24{fill:none;stroke:#0561FC;stroke-width:6.9311;}
	.st25{fill:none;stroke:#0561FC;stroke-width:6.8376;stroke-linecap:round;stroke-miterlimit:10;}
	.st26{fill:#FFFFFF;}
	.st27{fill:#FFFFFF;stroke:#0561FC;stroke-width:6.8376;}
</style>
<g id="SvgjsG1006">
	<g class="st0">
		<g class="st1">
			<rect x="-1" y="-2.8" class="st2" width="218.8" height="218.8"></rect>
		</g>
	</g>
</g>
<g id="SvgjsG1005">
</g>
<g id="SvgjsG1004">
	<g>
		<g>
			<path class="st6" d="M146.5,69.1c0.1-1.1,0.2-2.3,0.2-3.5c0-16.3-13.2-29.4-29.4-29.4c-2.8,0-5.4,0.4-8,1.1
				c-2.9-21-20.9-37.3-42.8-37.3c-23.9,0-43.2,19.3-43.2,43.2c0,0.1,0,0.2,0,0.3C10.2,45,0,56.2,0,69.7c0,14.6,11.8,26.4,26.4,26.4
				h44.4h13h11.6h25.8h23.7c0,0,0,0,0-0.1c0.4,0,0.8,0.1,1.1,0.1c7.4,0,13.5-6,13.5-13.5C159.5,75.3,153.7,69.4,146.5,69.1z"></path>
		</g>
		<path class="st11" d="M124.6,152.7v8.9c0,10.9-9.8,18.2-20.7,18.2H49.5c-10.9,0-19.8-7.3-19.8-18.2v-33.8l-16.5-7.6l26.4-57
			c0,0,4-9.6,4.7-11.5C54.8,23.5,81.9,3.4,113.8,3.4c41,0,74.2,33.2,74.2,74.2c0,24.7-13.1,46.6-31.7,60.1v78.4"></path>
		<line class="st11" x1="70.6" y1="216.1" x2="70.6" y2="182.3"></line>
		<polygon class="st5" points="122,77.1 97.2,77.1 106.5,49.2 70.4,93.8 95.2,93.8 85.9,121.7 		"></polygon>
	</g>
</g>
</svg><style>@media (prefers-color-scheme: light) { :root { filter: none; } }
@media (prefers-color-scheme: dark) { :root { filter: none; } }
</style></svg>